<svg xmlns="http://www.w3.org/2000/svg" width="40" height="40" viewBox="0 0 40 40">
  <!-- الخلفية -->
  <rect width="40" height="40" rx="10" fill="#7c93b5"/>

  <!-- الأيقونة (Padding أصغر) -->
  <g transform="translate(20 20) scale(0.72) translate(-24 -24)">
    <g fill="none" stroke-linejoin="round" stroke-width="2">
      <path fill="#9d7a65" stroke="#000"
        d="M5 7C5 5.34315 6.34315 4 8 4H32C33.6569 4 35 5.34315 35 7V44H8C6.34315 44 5 42.6569 5 41V7Z"/>
      <path stroke="#000"
        d="M35 24C35 22.8954 35.8954 22 37 22H41C42.1046 22 43 22.8954 43 24V41C43 42.6569 41.6569 44 40 44H35V24Z"/>
      <path stroke="#000" stroke-linecap="round" d="M11 12H19"/>
      <path stroke="#000" stroke-linecap="round" d="M11 19H23"/>
    </g>
  </g>
</svg>

